<svg version="1.1"
	 xmlns="http://www.w3.org/2000/svg" xmlns:xlink="http://www.w3.org/1999/xlink" x="0px" y="0px" width="457.506px"
	 height="107.687px" viewBox="0 0 457.506 107.687">
<path fill-rule="evenodd" clip-rule="evenodd" fill="#f47b20" d="M92.991,0.016c0.122,0.376,0.466,0.229,0.71,0.283
	c8.443,1.854,14.051,8.811,14.059,17.465c0.006,6.599-0.017,13.199,0.022,19.798c0.005,0.897-0.292,1.315-1.101,1.691
	c-22.789,10.603-49.135-1.476-56.387-25.892c-1.292-4.348-2.003-8.794-1.944-13.346C63.231,0.016,78.111,0.016,92.991,0.016z"/>
<path fill-rule="evenodd" clip-rule="evenodd" fill="#FFFFFF" d="M285.506,64.08c0.801-6.414,1.607-12.828,2.406-19.243
	c1.625-13.05,3.259-26.1,4.852-39.154c0.15-1.23,0.624-1.593,1.874-1.586c9.991,0.056,19.983,0.056,29.974,0.001
	c1.357-0.007,1.78,0.319,1.779,1.74c-0.042,32.026-0.042,64.052,0,96.077c0.003,1.423-0.405,1.733-1.763,1.718
	c-6.219-0.074-12.439-0.089-18.659,0.009c-1.501,0.022-1.82-0.371-1.817-1.839c0.052-22.033,0.035-44.067,0.035-66.101
	c0-0.725,0-1.45,0-2.175c-0.115-0.016-0.23-0.032-0.348-0.048c-0.39,2.538-0.807,5.071-1.166,7.613
	c-2.834,20.015-5.683,40.029-8.442,60.054c-0.258,1.879-0.766,2.611-2.822,2.514c-4.158-0.198-8.339-0.168-12.502-0.007
	c-1.722,0.068-2.167-0.503-2.386-2.093c-1.713-12.5-3.516-24.988-5.292-37.481c-1.464-10.312-2.929-20.625-4.426-31.174
	c-0.549,0.871-0.327,1.566-0.327,2.215c-0.015,22.167-0.033,44.333,0.03,66.499c0.005,1.66-0.395,2.055-2.037,2.026
	c-6.219-0.109-12.438-0.075-18.657-0.017c-1.205,0.012-1.551-0.281-1.549-1.528c0.036-32.157,0.038-64.316,0-96.473
	c-0.002-1.283,0.434-1.524,1.591-1.521c10.322,0.037,20.645,0.053,30.967-0.016c1.352-0.009,1.622,0.503,1.746,1.659
	c0.833,7.687,1.721,15.367,2.594,23.048c1.334,11.748,2.67,23.496,4.005,35.244C285.278,64.054,285.394,64.066,285.506,64.08z"/>
<path fill-rule="evenodd" clip-rule="evenodd" fill="#FFFFFF" d="M128.215,73.754c3.241,0,6.485,0.053,9.725-0.027
	c1.187-0.029,1.612,0.23,1.557,1.507c-0.108,2.505-0.108,5.03,0.654,7.468c0.942,3.01,2.767,4.504,5.337,4.414
	c2.451-0.088,4.229-1.706,5.013-4.586c0.673-2.471,0.623-4.984,0.273-7.48c-0.371-2.646-1.89-4.556-4.097-6.023
	c-4.407-2.929-9.292-5.02-13.728-7.891c-1.938-1.255-3.864-2.541-5.717-3.918c-5.681-4.221-8.751-9.877-9.365-16.947
	c-0.611-7.039-0.424-14,1.613-20.814c2.667-8.927,8.772-14.219,17.715-16.305c6.084-1.418,12.232-1.252,18.295,0.095
	c9.676,2.15,15.031,8.475,16.823,18.038c0.623,3.322,0.828,6.683,0.931,10.059c0.036,1.229-0.327,1.554-1.553,1.542
	c-6.351-0.063-12.703-0.064-19.054,0c-1.238,0.012-1.593-0.351-1.556-1.561c0.068-2.24,0.193-4.5-0.552-6.683
	c-0.842-2.465-2.482-3.868-4.655-3.961c-2.11-0.091-3.887,1.259-4.862,3.698c-1.946,4.859,0.035,10.713,4.801,14.121
	c3.514,2.513,7.515,4.108,11.382,5.946c8.366,3.974,14.795,9.631,16.978,19.106c1.232,5.351,1.207,10.751,0.765,16.17
	c-0.283,3.497-0.909,6.931-2.086,10.26c-2.626,7.428-7.772,12.086-15.359,14.077c-7.479,1.963-15.051,2.121-22.598,0.643
	c-9.683-1.899-15.472-8.135-17.311-18.226c-0.689-3.789-0.874-7.609-0.851-11.455c0.006-1.086,0.362-1.303,1.358-1.287
	C121.465,73.789,124.841,73.754,128.215,73.754z"/>
<path fill-rule="evenodd" clip-rule="evenodd" fill="#f47b20" d="M107.754,76.713c0.029-7.477-0.001-14.954,0.02-22.432
	c0.002-0.836-0.087-1.164-1.043-0.783c-1.292,0.514-2.656,0.849-3.987,1.265c-0.415,0.129-0.867,0.203-0.877,0.804
	c-0.024,1.388-0.772,1.94-2.123,1.866c-0.469-0.025-0.958,0.082-1.42,0.196c-0.695,0.171-1.181-0.048-1.423-0.703
	c-0.311-0.838-0.945-0.847-1.65-0.712c-0.771,0.148-1.729-0.072-1.966,1.1c-0.084,0.419-0.106,0.998-0.811,0.986
	c-1.04-0.02-2.079-0.01-3.119-0.004c-0.307,0.002-0.609-0.072-0.669-0.383c-0.344-1.789-1.822-1.249-2.934-1.454
	c-0.496-0.092-0.875,0.075-1.022,0.585c-0.338,1.17-1.164,1.203-2.145,0.979c-0.621-0.144-1.255-0.255-1.889-0.313
	c-0.571-0.053-0.873-0.295-0.925-0.872c-0.079-0.876-0.542-1.329-1.451-1.383c-0.511-0.03-1.036-0.15-1.516-0.333
	c-0.559-0.213-0.944-0.105-1.166,0.428c-0.598,1.439-1.605,1.541-2.87,0.941c-0.284-0.135-0.607-0.233-0.919-0.258
	c-1.031-0.08-1.409-0.629-1.453-1.637c-0.025-0.581,0.101-1.295-0.596-1.705c-2.029-1.192-2.499-1.202-4.177,0.379
	c-0.641,0.603-1.153,0.704-1.833,0.19c-0.221-0.167-0.468-0.331-0.729-0.41c-1.659-0.5-2.193-1.568-1.76-3.228
	c0.172-0.661,0.01-1.152-0.644-1.697c-1.346-1.12-2.463-1.125-3.712,0.03c-0.375,0.346-0.888,0.538-1.304,0.847
	s-0.728,0.288-1.167-0.022c-2.778-1.967-2.787-1.955-1.939-5.245c0.07-0.271,0.08-0.569,0.204-0.811
	c0.38-0.739-0.133-1.081-0.581-1.49c-0.445-0.406-0.79-0.831-1.539-0.491c-1.05,0.477-2.176,0.782-3.255,1.2
	c-0.483,0.187-0.778,0.101-1.13-0.297c-2.233-2.521-2.244-2.511-0.736-5.53c0.107-0.214,0.178-0.459,0.329-0.637
	c0.74-0.877-0.015-1.424-0.402-2.086c-0.41-0.701-0.921-0.404-1.454-0.271c-0.929,0.233-1.868,0.427-2.793,0.671
	c-0.385,0.102-0.685,0.126-0.925-0.263c-0.627-1.02-1.593-1.965-1.808-3.061c-0.165-0.839,0.954-1.649,1.455-2.501
	c0.223-0.378,0.486-0.731,0.719-1.104c0.6-0.963,0.137-1.894-1.013-1.99c-0.835-0.07-1.684-0.17-2.512-0.093
	c-1.378,0.127-1.918-0.446-2.413-1.751c-0.711-1.874-0.354-3.092,1.328-4.021c1.352-0.748,1.526-1.745,0.937-3.146
	c-0.294-0.698-0.617-1.016-1.307-1.125c-0.985-0.157-1.962-0.371-2.945-0.542c-0.388-0.067-0.601-0.205-0.723-0.64
	c-0.869-3.094-0.732-3.492,1.942-5.16c0.169-0.105,0.326-0.245,0.509-0.313c1.034-0.385,0.48-1.188,0.482-1.832
	c0.001-0.607-0.069-1.134-0.819-1.399c-1.103-0.389-2.688-0.364-3.154-1.375c-0.47-1.021-0.1-2.428-0.098-3.665
	c-5.28,0-10.56,0-15.84,0c-1.735,0.206-3.447,0.515-5.015,1.335C4.545,4.194,0.98,8.427,0.111,14.656c0,26.16,0,52.32,0,78.479
	c0.44,0.272,0.35,0.768,0.452,1.162c1.48,5.677,4.962,9.618,10.271,12.041c1.647,0.752,3.023,0.813,4.637-0.32
	c1.726-1.212,3.772-0.172,5.677-0.063c0.15,0.009,0.324,0.348,0.411,0.564c0.41,1.022,1.184,1.17,2.202,1.168
	c21.712-0.026,43.425-0.019,65.138-0.024c0.998,0,1.998-0.03,2.993-0.1c8.161-0.566,15.243-7.591,15.754-15.74
	C107.96,86.793,107.735,81.75,107.754,76.713z M27.509,59.053c1.947-1.238,3.896-0.615,5.843-0.002
	c0.9,0.285,0.732,1.155,0.901,1.799c0.148,0.566-0.482,0.521-0.799,0.663c-0.796,0.354-1.563,0.798-2.437,0.955
	c-1.221-0.277-2.468-0.439-3.618-0.864c-0.741-0.275-0.6-1.235-0.732-1.904C26.561,59.162,27.203,59.249,27.509,59.053z
	 M26.44,67.563c1.697-1.416,1.697-1.416,5.149-1.416c0.2,0,0.407,0.035,0.599-0.005c2.333-0.499,3.925,0.74,5.432,2.251
	c0.38,0.381,0.41,0.582-0.008,0.926c-0.833,0.686-1.646,1.398-2.435,2.135c-0.333,0.311-0.697,0.338-1.101,0.322
	c-1.836-0.068-3.673-0.123-5.508-0.207c-0.98-0.045-1.473-0.888-2.132-1.424C24.876,68.875,24.897,68.848,26.44,67.563z
	 M37.049,77.575c-1.408,0.439-2.607-0.385-3.719-1.525c-0.372-0.381-0.38-0.568,0.017-0.93c1.023-0.934,2.057-1.566,3.582-1.473
	c1.684,0.104,3.321-0.037,4.576,1.434c0.385,0.451,0.415,0.623-0.008,1.014C39.909,77.562,39.921,77.575,37.049,77.575z
	 M36.111,85.915c-1.186,0.131-2.37,0.305-3.56,0.353c-1.401,0.056-2.335-1.062-3.518-1.567c-0.157-0.066-0.086-0.266-0.048-0.426
	c0.308-1.3,1.214-2.124,2.549-2.285c0.592-0.07,1.187-0.119,2.05-0.205c1.351-0.406,2.521,0.713,3.863,1.229
	c0.106,0.04,0.24,0.1,0.287,0.188C37.984,83.676,36.683,85.852,36.111,85.915z M26.106,74.454c1.21,0.694,2.427,1.378,3.666,2.02
	c0.53,0.273,0.767,0.545,0.335,1.074c-0.024,0.03-0.037,0.07-0.056,0.105c-1.478,2.746-1.479,2.739-4.676,3.041
	c-1.191,0.113-2.378,0.264-3.714,0.413c-0.726-0.184-1.443-0.697-2.207-1.108c-0.841-0.453-2.142-0.764-2.377-1.439
	c-0.28-0.8,0.845-1.678,1.22-2.588c0.306-0.74,0.864-0.951,1.576-1.043c1.622-0.213,3.24-0.449,4.857-0.695
	C25.222,74.158,25.661,74.198,26.106,74.454z M21.22,69.251c-2.076,2.869-6.466,2.855-8.404-0.001
	C14.758,66.508,19.162,66.514,21.22,69.251z M5.522,81.64c-0.421-0.268-0.499-0.463-0.301-0.933c0.559-1.327,1.286-2.308,2.942-2.24
	c0.784,0.032,1.578-0.211,2.487-0.348c1.042,0.353,2.018,1.053,3.061,1.616c0.077,0.042,0.121,0.2,0.126,0.308
	c0.043,0.803-1.431,2.48-2.231,2.563c-0.596,0.062-1.215,0.054-1.78,0.224C8.12,83.341,6.843,82.479,5.522,81.64z M14.119,97.246
	c-0.99,0.518-1.829,1.494-2.933,1.216c-1.351-0.161-2.496-0.296-3.64-0.436c-0.353-0.043-0.676-0.088-0.929-0.429
	c-1.304-1.764-1.13-2.048,0.65-3.234c2.124-1.415,4.313-0.754,6.442-0.452c0.942,0.133,1.109,1.542,1.439,2.428
	C15.376,96.953,14.519,97.037,14.119,97.246z M16.277,91.873c-0.776-0.069-1.321-0.351-1.662-1.105
	c-0.438-0.97-1.593-1.896-1.386-2.788c0.195-0.836,1.685-1.035,2.512-1.646c1.41-1.04,2.898-1.32,4.616-0.951
	c1.242,0.268,2.535,0.311,3.81,0.402c0.72,0.051,1.141,0.36,1.418,1.034c0.393,0.957,1.396,2.013,1.189,2.767
	c-0.204,0.746-1.56,1.217-2.46,1.717c-0.843,0.471-1.53,1.357-2.674,1.121C19.853,92.237,18.066,92.034,16.277,91.873z
	 M31.95,103.298c-0.966,0.614-1.75,1.731-2.982,1.406c-2.034-0.188-3.897-0.376-5.764-0.525c-0.451-0.036-0.731-0.216-0.946-0.597
	c-0.625-1.111-1.253-2.22-1.909-3.312c-0.258-0.43-0.207-0.652,0.241-0.926c1.361-0.827,2.693-1.703,4.023-2.582
	c0.365-0.241,0.727-0.253,1.134-0.203c1.938,0.237,3.875,0.479,5.818,0.672c0.617,0.061,1.035,0.307,1.357,0.818
	c0.657,1.043,1.937,2.126,1.848,3.089C34.675,102.157,32.98,102.643,31.95,103.298z M35.984,93.899
	c-0.709-0.097-1.453-0.229-2.145-0.119c-1.922,0.304-2.502-1.071-3.219-2.356c-0.252-0.452-0.074-0.617,0.288-0.821
	c1.52-0.861,2.963-1.98,4.632-1.338c0.5,0,0.749,0.043,0.978-0.007c1.858-0.406,2.47,0.911,3.099,2.216
	c0.107,0.223,0.256,0.506,0.003,0.645C38.438,92.766,37.605,94.119,35.984,93.899z M47.73,104.378
	c-1.559,1.559-3.269,2.039-5.572,1.678c-1.869-0.293-2.647-1.326-3.466-2.64c-0.123-0.195-0.357-0.446-0.096-0.621
	c1.08-0.725,2.188-1.407,3.043-1.951c1.693,0.155,3.044,0.265,4.392,0.408c0.5,0.053,2.188,2.256,2.07,2.69
	C48.056,104.109,47.866,104.243,47.73,104.378z M48.131,70.622c-2.062,1.601-4.236,0.83-6.341,0.207
	c-0.873-0.259-0.593-1.35-0.83-2.059c-0.223-0.667,0.477-0.621,0.82-0.764c0.841-0.348,1.713-0.621,2.533-0.91
	c1.313,0.286,2.593,0.451,3.787,0.867c0.76,0.264,0.541,1.232,0.742,1.885C49.015,70.414,48.417,70.399,48.131,70.622z
	 M48.373,64.151c-2.729,1.568-5.431,0.997-8.178,0.283c-0.429-0.111-1.026,0.082-1.245-0.509c-0.317-0.855-0.603-1.724-0.881-2.593
	c-0.022-0.068,0.094-0.244,0.18-0.275c1.56-0.574,3.125-1.133,4.527-1.637c1.97,0.362,3.731,0.676,5.488,1.015
	c0.869,0.167,0.773,1.02,1.013,1.593C49.899,63.514,49.764,63.352,48.373,64.151z M48.97,57.331
	c-1.918,0.667-3.729,0.465-5.502-0.438c-0.315-0.16-0.894-0.131-0.672-0.738c0.211-0.578-0.078-1.434,0.871-1.625
	c1.849-0.373,3.655-0.537,5.444,0.374c0.603,0.307,0.898,0.579,0.769,1.255C50.082,56.922,49.614,57.106,48.97,57.331z
	 M59.672,67.22c-1.97,0.681-3.778,0.354-5.638-0.427c-0.832-0.35-0.716-0.881-0.764-1.504c-0.054-0.717,0.402-0.794,0.925-0.975
	c1.862-0.645,3.651-0.801,5.495,0.159c0.698,0.363,1.185,0.613,0.896,1.409C60.83,66.763,60.386,66.974,59.672,67.22z
	 M62.392,61.434c-2.693,0.801-5.195,0.598-7.769-0.416c-1.05-0.412-1.846-0.713-1.414-2.007c-0.315-1.112,0.226-1.389,1.217-1.782
	c3.172-1.26,6.054-0.402,8.983,0.732c0.771,0.299,0.496,0.853,0.588,1.354C64.237,60.631,63.656,61.059,62.392,61.434z"/>
<path fill-rule="evenodd" clip-rule="evenodd" fill="#FFFFFF" d="M389.392,63.355c-1.923-6.646-6.367-10.829-13.831-11.906
	c7.205-2.504,10.852-7.486,12.505-14.206c1.077-4.366,1.09-8.775,0.681-13.201c-1.06-11.407-8.718-19.124-19.854-19.676
	c-11.898-0.59-23.814-0.122-35.723-0.252c-0.918-0.01-1.335,0.22-1.268,1.213c0.071,1.121,0.016,2.249,0.016,3.374
	c0,30.969-0.002,61.939,0.008,92.908c0,0.944-0.474,2.046,1.388,2.033c11.843-0.083,23.695,0.192,35.532-0.117
	c9.354-0.245,16.289-4.748,19.667-13.711C391.777,81.15,391.954,72.213,389.392,63.355z M355.347,33.721
	c0-2.703,0.032-5.407-0.019-8.109c-0.018-0.967,0.187-1.353,1.287-1.392c5.691-0.202,8.3,2.057,8.791,7.711
	c0.214,2.457,0.147,4.869-0.825,7.174c-1.411,3.343-5.21,5.117-8.665,4.153c-0.824-0.23-0.552-0.781-0.557-1.229
	C355.333,39.26,355.347,36.49,355.347,33.721z M366.162,77.891c-1.044,3.742-3.071,5.381-6.919,5.633
	c-0.726,0.048-1.466-0.061-2.182,0.037c-1.386,0.191-1.794-0.321-1.749-1.719c0.105-3.24,0.034-6.484,0.034-9.727
	c0-3.11,0.066-6.223-0.032-9.33c-0.041-1.383,0.192-1.925,1.783-1.91c6.345,0.055,8.727,2.174,9.495,8.566
	C366.938,72.301,366.936,75.112,366.162,77.891z"/>
<path fill-rule="evenodd" clip-rule="evenodd" fill="#FFFFFF" d="M241.596,102.002c-3.149-15.658-6.209-31.334-9.309-47.004
	c-3.253-16.443-6.544-32.88-9.744-49.335c-0.251-1.286-0.728-1.573-1.915-1.557c-4.366,0.058-8.731,0.023-13.097,0.023
	c-4.302,0-8.601,0.041-12.9-0.025c-1.294-0.019-1.899,0.177-2.196,1.691c-3.708,18.976-7.523,37.931-11.308,56.892
	c-2.622,13.138-5.233,26.278-7.866,39.413c-0.193,0.967-0.284,1.546,1.092,1.533c7.211-0.067,14.421-0.051,21.633-0.009
	c1.028,0.007,1.3-0.334,1.437-1.318c0.576-4.12,1.308-8.219,1.88-12.34c0.141-1.024,0.339-1.499,1.508-1.481
	c4.365,0.068,8.732,0.06,13.098,0.004c1.034-0.012,1.28,0.35,1.428,1.324c0.61,4.048,1.373,8.072,2.017,12.114
	c0.187,1.177,0.502,1.737,1.916,1.719c7.013-0.096,14.025-0.078,21.036-0.015C241.672,103.644,241.869,103.36,241.596,102.002z
	 M211.156,66.701c-2.573-0.092-5.152-0.09-7.725,0c-1.183,0.041-1.434-0.328-1.279-1.441c1.146-8.36,2.249-16.729,3.36-25.095
	c0.47-3.53,0.925-7.063,1.39-10.593c0.11-0.83,0.085-1.693,0.685-2.769c1.629,13.055,3.203,25.75,4.818,38.439
	C212.546,66.34,212.366,66.745,211.156,66.701z"/>
<path fill-rule="evenodd" clip-rule="evenodd" fill="#FFFFFF" d="M457.264,102.093c-2.851-14.44-5.698-28.882-8.56-43.319
	c-3.51-17.739-7.046-35.472-10.516-53.218c-0.229-1.16-0.648-1.458-1.781-1.452c-8.798,0.046-17.595,0.048-26.392,0
	c-1.226-0.006-1.65,0.336-1.896,1.593c-3.368,17.229-6.811,34.441-10.239,51.659c-2.965,14.892-5.931,29.783-8.908,44.673
	c-0.169,0.843-0.619,1.614,0.93,1.601c7.276-0.063,14.551-0.041,21.827-0.011c0.908,0.003,1.209-0.26,1.338-1.193
	c0.576-4.186,1.302-8.35,1.883-12.536c0.147-1.074,0.517-1.416,1.607-1.401c4.299,0.062,8.599,0.067,12.896-0.004
	c1.103-0.019,1.422,0.362,1.571,1.382c0.42,2.872,0.995,5.722,1.436,8.591c0.791,5.142,0.768,5.146,5.932,5.146
	c6.34,0,12.68,0,19.114,0C457.407,102.991,457.351,102.539,457.264,102.093z M426.723,66.711c-2.572-0.131-5.156-0.09-7.73-0.012
	c-1.076,0.031-1.334-0.281-1.19-1.325c1.128-8.239,2.211-16.484,3.308-24.728c0.616-4.633,1.233-9.266,1.849-13.9
	c0.104,0.023,0.205,0.047,0.309,0.071c1.589,12.768,3.169,25.537,4.78,38.302C428.186,66.225,428.114,66.781,426.723,66.711z"/>
</svg>
