<?xml version="1.0" encoding="utf-8"?>
<!-- Generator: Adobe Illustrator 16.0.0, SVG Export Plug-In . SVG Version: 6.00 Build 0)  -->
<!DOCTYPE svg PUBLIC "-//W3C//DTD SVG 1.1//EN" "http://www.w3.org/Graphics/SVG/1.1/DTD/svg11.dtd">
<svg version="1.1" id="Layer_1" xmlns="http://www.w3.org/2000/svg" xmlns:xlink="http://www.w3.org/1999/xlink" x="0px" y="0px"
	 width="395.763px" height="92.395px" viewBox="0 0 395.763 92.395" enable-background="new 0 0 395.763 92.395"
	 xml:space="preserve">
<g>
	<path fill="#507EC0" d="M130.595,81.645c-1.86,0-3.498,0.945-4.463,2.381H98.189c-0.366-0.588-0.839-1.098-1.398-1.506v-21.5
		c0.658-0.48,1.192-1.109,1.576-1.834h20.742c0.928,1.611,2.648,2.711,4.642,2.711c2.968,0,5.375-2.408,5.375-5.375
		c0-2.969-2.407-5.377-5.375-5.377c-1.965,0-3.667,1.066-4.604,2.643H98.15c-0.36-0.561-0.822-1.043-1.359-1.434V32.835
		c0.626-0.457,1.138-1.047,1.519-1.728h26.837c0.919,1.645,2.656,2.77,4.674,2.77c2.968,0,5.375-2.407,5.375-5.375
		c0-2.969-2.407-5.376-5.375-5.376c-1.941,0-3.626,1.039-4.571,2.581H98.208c-0.945-1.542-2.631-2.581-4.572-2.581
		c-2.968,0-5.375,2.407-5.375,5.376c0,1.944,1.043,3.634,2.591,4.577V52.11c-1.547,0.943-2.591,2.631-2.591,4.576
		s1.043,3.633,2.591,4.578v21.012c-1.547,0.945-2.591,2.633-2.591,4.578c0,2.967,2.407,5.375,5.375,5.375
		c2.031,0,3.778-1.141,4.692-2.803h27.485c0.885,1.754,2.684,2.969,4.782,2.969c2.968,0,5.375-2.406,5.375-5.375
		S133.563,81.645,130.595,81.645z"/>
	<path fill="#507EC0" d="M335.05,44.157c-1.125-2.83-2.559-5.386-4.289-7.683c0.146-0.49,0.25-0.998,0.25-1.535
		c0-2.969-2.406-5.377-5.375-5.377c-0.608,0-1.184,0.123-1.729,0.309c-1.835-1.271-3.832-2.362-6.004-3.263
		c-4.049-1.68-8.504-2.521-13.363-2.521c-4.861,0-9.316,0.841-13.365,2.521c-4.051,1.68-7.516,4.004-10.396,6.975
		c-2.879,2.97-5.129,6.495-6.75,10.575c-1.619,4.082-2.43,8.551-2.43,13.41s0.811,9.346,2.43,13.455
		c1.621,4.111,3.871,7.65,6.75,10.619c2.881,2.969,6.346,5.279,10.396,6.93c4.049,1.648,8.504,2.475,13.365,2.475
		c4.859,0,9.314-0.826,13.363-2.475c4.051-1.65,7.516-3.961,10.396-6.93c2.879-2.969,5.129-6.508,6.75-10.619
		c1.619-4.109,2.43-8.596,2.43-13.455S336.669,48.239,335.05,44.157z M329.649,68.637c-1.26,3.42-3.061,6.391-5.4,8.91
		s-5.174,4.5-8.504,5.938c-3.33,1.441-7.066,2.16-11.205,2.16c-4.141,0-7.875-0.719-11.205-2.16
		c-3.33-1.438-6.166-3.418-8.506-5.938s-4.141-5.49-5.4-8.91s-1.889-7.109-1.889-11.07c0-3.959,0.629-7.65,1.889-11.07
		s3.061-6.389,5.4-8.91c2.34-2.521,5.176-4.5,8.506-5.94c3.33-1.439,7.064-2.16,11.205-2.16c4.139,0,7.875,0.721,11.205,2.16
		c1.652,0.715,3.182,1.564,4.591,2.545c-0.034,0.246-0.075,0.491-0.075,0.747c0,2.967,2.406,5.375,5.375,5.375
		c0.249,0,0.486-0.041,0.727-0.074c1.331,1.891,2.441,3.963,3.287,6.258c1.26,3.42,1.891,7.111,1.891,11.07
		C331.54,61.528,330.909,65.217,329.649,68.637z"/>
	<path fill="#507EC0" d="M390.388,81.618c-0.049,0-0.094,0.014-0.141,0.014l-12.99-21.438c0.42-0.494,0.75-1.057,0.969-1.68
		c1.193-0.238,2.42-0.551,3.693-0.947c1.92-0.6,3.674-1.514,5.266-2.744c1.588-1.23,2.908-2.836,3.959-4.816
		c1.049-1.979,1.576-4.5,1.576-7.559c0-2.76-0.451-5.1-1.352-7.021c-0.898-1.919-2.039-3.51-3.42-4.771
		c-1.381-1.26-2.939-2.219-4.68-2.879s-3.451-1.14-5.129-1.44c-1.682-0.3-3.24-0.479-4.682-0.54c-1.439-0.059-2.58-0.09-3.42-0.09
		h-8.963c-0.936-1.577-2.639-2.646-4.605-2.646c-2.969,0-5.375,2.408-5.375,5.377c0,1.778,0.873,3.343,2.205,4.32v19.44
		c-1.332,0.98-2.205,2.545-2.205,4.324c0,1.777,0.873,3.342,2.205,4.32v21.83c-1.332,0.98-2.205,2.545-2.205,4.322
		c0,2.969,2.406,5.375,5.375,5.375s5.375-2.406,5.375-5.375c0-1.951-1.051-3.643-2.605-4.586V61.106
		c0.777-0.471,1.418-1.131,1.871-1.92h7.313c0.711,1.373,1.98,2.398,3.521,2.762l13.541,22.863
		c-0.299,0.668-0.473,1.404-0.473,2.184c0,2.967,2.406,5.375,5.375,5.375s5.375-2.408,5.375-5.375
		C395.763,84.026,393.356,81.618,390.388,81.618z M371.839,31.107c3.119,0,5.654,0.391,7.605,1.17
		c1.949,0.779,3.465,1.74,4.545,2.879c1.08,1.141,1.814,2.371,2.205,3.69c0.389,1.32,0.584,2.521,0.584,3.601
		s-0.195,2.279-0.584,3.6c-0.391,1.32-1.125,2.551-2.205,3.689c-1.08,1.141-2.596,2.102-4.545,2.881
		c-0.658,0.262-1.406,0.465-2.195,0.639c-0.986-1.156-2.434-1.904-4.07-1.904c-1.881,0-3.531,0.971-4.492,2.436h-7.613
		c-0.451-0.76-1.078-1.395-1.834-1.854V33.021c0.775-0.47,1.414-1.127,1.869-1.914H371.839z"/>
	<path fill="#507EC0" d="M263.431,23.207c-1.908,0-3.573,1.001-4.527,2.5h-15.803c-0.954-1.499-2.619-2.5-4.527-2.5
		s-3.573,1.001-4.527,2.5h-15.588c-0.954-1.499-2.619-2.5-4.527-2.5c-2.969,0-5.375,2.408-5.375,5.377
		c0,2.968,2.406,5.375,5.375,5.375c2.051,0,3.813-1.163,4.719-2.852h15.205c0.439,0.819,1.072,1.515,1.855,2.011v49.375
		c-1.472,0.961-2.449,2.615-2.449,4.502c0,2.967,2.406,5.375,5.375,5.375s5.375-2.408,5.375-5.375c0-1.852-0.937-3.484-2.361-4.451
		V32.982c0.688-0.483,1.242-1.13,1.643-1.875h15.42c0.906,1.688,2.668,2.852,4.719,2.852c2.969,0,5.375-2.407,5.375-5.375
		C268.806,25.615,266.399,23.207,263.431,23.207z"/>
	<path fill="#507EC0" d="M197.606,72.098c-2.969,0-5.375,2.408-5.375,5.377c0,0.592,0.119,1.152,0.297,1.688
		c-0.374,0.363-0.759,0.711-1.158,1.039c-1.5,1.23-3.074,2.25-4.725,3.061c-1.65,0.809-3.346,1.408-5.084,1.799
		c-1.742,0.391-3.42,0.584-5.041,0.584c-4.141,0-7.875-0.719-11.205-2.16c-3.33-1.438-6.164-3.418-8.506-5.938
		c-2.339-2.52-4.139-5.49-5.399-8.91c-1.26-3.42-1.89-7.109-1.89-11.07c0-3.959,0.63-7.65,1.89-11.07
		c1.26-3.42,3.06-6.389,5.399-8.91c2.342-2.521,5.176-4.5,8.506-5.94c3.33-1.439,7.064-2.16,11.205-2.16
		c3.24,0,6.404,0.691,9.496,2.07c1.795,0.803,3.399,1.888,4.82,3.237c-0.109,0.428-0.186,0.867-0.186,1.329
		c0,2.967,2.406,5.375,5.375,5.375s5.375-2.408,5.375-5.375c0-2.969-2.406-5.377-5.375-5.377c-0.191,0-0.372,0.036-0.558,0.056
		c-2.079-1.925-4.356-3.404-6.842-4.42c-3.75-1.53-7.785-2.295-12.105-2.295c-4.859,0-9.314,0.841-13.365,2.521
		c-4.049,1.68-7.516,4.004-10.395,6.975c-2.88,2.97-5.13,6.495-6.75,10.575c-1.62,4.082-2.43,8.551-2.43,13.41
		s0.81,9.346,2.43,13.455c1.62,4.111,3.87,7.65,6.75,10.619c2.879,2.969,6.346,5.279,10.395,6.93
		c4.051,1.648,8.506,2.475,13.365,2.475c4.68,0,9.029-0.9,13.051-2.699c2.817-1.262,5.395-3.113,7.743-5.525
		c0.099,0.004,0.192,0.029,0.292,0.029c2.969,0,5.375-2.408,5.375-5.375C202.981,74.506,200.575,72.098,197.606,72.098z"/>
	<g>
		<polygon fill="#507EC0" points="61.47,34.491 58.032,42.584 64.462,45.327 67.92,37.242 		"/>
		<polygon fill="#507EC0" points="56.207,46.877 52.769,54.971 59.171,57.7 62.628,49.616 		"/>
		<polygon fill="#507EC0" points="50.944,59.264 47.506,67.356 53.879,70.075 57.336,61.991 		"/>
		<path fill="#507EC0" d="M52.044,74.366l-6.363-2.715L44.1,75.37c-0.61-0.139-1.25-0.219-1.91-0.219c-0.65,0-1.28,0.08-1.89,0.209
			L14.64,14.53c1.51-1.55,2.45-3.66,2.45-5.99C17.09,3.83,13.26,0,8.54,0C3.83,0,0,3.83,0,8.54c0,4.5,3.48,8.181,7.89,8.511
			l26.54,63.081c-0.49,1.09-0.78,2.289-0.78,3.559c0,4.711,3.83,8.541,8.54,8.541c4.72,0,8.55-3.83,8.55-8.541
			c0-1.439-0.36-2.789-0.99-3.969L52.044,74.366z"/>
		<path fill="#507EC0" d="M76.13,0c-4.72,0-8.55,3.83-8.55,8.551c0,2.3,0.92,4.38,2.4,5.92l-1.422,3.341l6.488,2.767l1.503-3.508
			c4.52-0.22,8.12-3.95,8.12-8.52C84.67,3.83,80.84,0,76.13,0z"/>
		<polygon fill="#507EC0" points="66.732,22.105 63.295,30.196 69.755,32.951 73.211,24.868 		"/>
	</g>
</g>
</svg>
